HIERARCHY
ROOT Hips
{
	OFFSET -50.672638 -52.785297 87.293335
	CHANNELS 6 Xposition Yposition Zposition Zrotation Yrotation Xrotation
	JOINT Spine
	{
		OFFSET 0.000000 2.080109 8.814247
		CHANNELS 6 Xposition Yposition Zposition Zrotation Yrotation Xrotation
		JOINT Spine1
		{
			OFFSET 0.000000 0.000000 8.844139
			CHANNELS 6 Xposition Yposition Zposition Zrotation Yrotation Xrotation
			JOINT Spine2
			{
				OFFSET 0.000000 0.000000 11.682266
				CHANNELS 6 Xposition Yposition Zposition Zrotation Yrotation Xrotation
				JOINT Spine3
				{
					OFFSET 0.000000 0.000004 11.746689
					CHANNELS 6 Xposition Yposition Zposition Zrotation Yrotation Xrotation
					JOINT Neck
					{
						OFFSET 0.000000 0.000000 17.658264
						CHANNELS 6 Xposition Yposition Zposition Zrotation Yrotation Xrotation
						JOINT Neck1
						{
							OFFSET 0.000000 0.000000 5.101517
							CHANNELS 6 Xposition Yposition Zposition Zrotation Yrotation Xrotation
							JOINT Head
							{
								OFFSET 0.000000 0.000000 5.101517
								CHANNELS 6 Xposition Yposition Zposition Zrotation Yrotation Xrotation
								JOINT HeadEnd
								{
									OFFSET 0.000000 0.000000 11.655090
									CHANNELS 6 Xposition Yposition Zposition Zrotation Yrotation Xrotation
									End Site
									{
										OFFSET 0.000000 0.000000 0.100006
									}
								}
							}
						}
					}
					JOINT RightShoulder
					{
						OFFSET -2.625389 0.000000 11.175217
						CHANNELS 6 Xposition Yposition Zposition Zrotation Yrotation Xrotation
						JOINT RightArm
						{
							OFFSET 0.000000 0.000000 10.434708
							CHANNELS 6 Xposition Yposition Zposition Zrotation Yrotation Xrotation
							JOINT RightForeArm
							{
								OFFSET 0.000000 0.000004 29.628418
								CHANNELS 6 Xposition Yposition Zposition Zrotation Yrotation Xrotation
								JOINT RightHand
								{
									OFFSET 0.000000 0.000000 22.857605
									CHANNELS 6 Xposition Yposition Zposition Zrotation Yrotation Xrotation
									JOINT RightHandThumb1
									{
										OFFSET -2.867325 -2.944290 3.959564
										CHANNELS 6 Xposition Yposition Zposition Zrotation Yrotation Xrotation
										JOINT RightHandThumb2
										{
											OFFSET 0.000000 0.000000 3.350403
											CHANNELS 6 Xposition Yposition Zposition Zrotation Yrotation Xrotation
											JOINT RightHandThumb3
											{
												OFFSET 0.000000 0.000000 3.756516
												CHANNELS 6 Xposition Yposition Zposition Zrotation Yrotation Xrotation
												JOINT RightHandThumb4
												{
													OFFSET 0.000000 0.000000 3.147339
													CHANNELS 6 Xposition Yposition Zposition Zrotation Yrotation Xrotation
													End Site
													{
														OFFSET 0.000000 0.000000 0.100006
													}
												}
											}
										}
									}
									JOINT RightHandIndex1
									{
										OFFSET -0.086754 -2.345280 10.030899
										CHANNELS 6 Xposition Yposition Zposition Zrotation Yrotation Xrotation
										JOINT RightHandIndex2
										{
											OFFSET 0.000000 0.000000 4.061096
											CHANNELS 6 Xposition Yposition Zposition Zrotation Yrotation Xrotation
											JOINT RightHandIndex3
											{
												OFFSET 0.000000 0.000000 3.248871
												CHANNELS 6 Xposition Yposition Zposition Zrotation Yrotation Xrotation
												JOINT RightHandIndex4
												{
													OFFSET 0.000000 0.000000 2.639709
													CHANNELS 6 Xposition Yposition Zposition Zrotation Yrotation Xrotation
													End Site
													{
														OFFSET 0.000000 0.000000 0.100006
													}
												}
											}
										}
									}
									JOINT RightHandMiddle1
									{
										OFFSET 0.104103 -0.006767 9.502945
										CHANNELS 6 Xposition Yposition Zposition Zrotation Yrotation Xrotation
										JOINT RightHandMiddle2
										{
											OFFSET 0.000000 0.000000 4.568726
											CHANNELS 6 Xposition Yposition Zposition Zrotation Yrotation Xrotation
											JOINT RightHandMiddle3
											{
												OFFSET 0.000000 0.000000 3.654984
												CHANNELS 6 Xposition Yposition Zposition Zrotation Yrotation Xrotation
												JOINT RightHandMiddle4
												{
													OFFSET 0.000000 0.000000 2.741241
													CHANNELS 6 Xposition Yposition Zposition Zrotation Yrotation Xrotation
													End Site
													{
														OFFSET 0.000000 0.000000 0.100006
													}
												}
											}
										}
									}
									JOINT RightHandRing1
									{
										OFFSET 0.086754 2.267441 8.921707
										CHANNELS 6 Xposition Yposition Zposition Zrotation Yrotation Xrotation
										JOINT RightHandRing2
										{
											OFFSET 0.000000 0.000000 4.061096
											CHANNELS 6 Xposition Yposition Zposition Zrotation Yrotation Xrotation
											JOINT RightHandRing3
											{
												OFFSET 0.000000 0.000000 3.654984
												CHANNELS 6 Xposition Yposition Zposition Zrotation Yrotation Xrotation
												JOINT RightHandRing4
												{
													OFFSET 0.000000 0.000000 2.741241
													CHANNELS 6 Xposition Yposition Zposition Zrotation Yrotation Xrotation
													End Site
													{
														OFFSET 0.000000 0.000000 0.100006
													}
												}
											}
										}
									}
									JOINT RightHandPinky1
									{
										OFFSET -0.173504 4.467197 7.976990
										CHANNELS 6 Xposition Yposition Zposition Zrotation Yrotation Xrotation
										JOINT RightHandPinky2
										{
											OFFSET 0.000000 0.000000 3.350403
											CHANNELS 6 Xposition Yposition Zposition Zrotation Yrotation Xrotation
											JOINT RightHandPinky3
											{
												OFFSET 0.000000 0.000000 2.842758
												CHANNELS 6 Xposition Yposition Zposition Zrotation Yrotation Xrotation
												JOINT RightHandPinky4
												{
													OFFSET 0.000000 0.000000 2.639709
													CHANNELS 6 Xposition Yposition Zposition Zrotation Yrotation Xrotation
													End Site
													{
														OFFSET 0.000000 0.000000 0.100006
													}
												}
											}
										}
									}
									JOINT RightForeArmEnd
									{
										OFFSET 0.000000 0.000000 0.000000
										CHANNELS 6 Xposition Yposition Zposition Zrotation Yrotation Xrotation
										End Site
										{
											OFFSET 0.000000 0.000000 0.100006
										}
									}
								}
								JOINT RightArmEnd
								{
									OFFSET 0.000000 0.000000 0.000000
									CHANNELS 6 Xposition Yposition Zposition Zrotation Yrotation Xrotation
									End Site
									{
										OFFSET 0.000000 0.000000 0.100006
									}
								}
							}
						}
					}
					JOINT LeftShoulder
					{
						OFFSET 2.625389 0.000000 11.175217
						CHANNELS 6 Xposition Yposition Zposition Zrotation Yrotation Xrotation
						JOINT LeftArm
						{
							OFFSET 0.000000 0.000000 10.813629
							CHANNELS 6 Xposition Yposition Zposition Zrotation Yrotation Xrotation
							JOINT LeftForeArm
							{
								OFFSET 0.000000 0.000004 28.724777
								CHANNELS 6 Xposition Yposition Zposition Zrotation Yrotation Xrotation
								JOINT LeftHand
								{
									OFFSET 0.644382 0.328873 25.716171
									CHANNELS 6 Xposition Yposition Zposition Zrotation Yrotation Xrotation
									JOINT LeftHandThumb1
									{
										OFFSET 2.867321 -2.944290 3.959564
										CHANNELS 6 Xposition Yposition Zposition Zrotation Yrotation Xrotation
										JOINT LeftHandThumb2
										{
											OFFSET 0.000000 0.000000 3.350403
											CHANNELS 6 Xposition Yposition Zposition Zrotation Yrotation Xrotation
											JOINT LeftHandThumb3
											{
												OFFSET 0.000000 0.000000 3.756516
												CHANNELS 6 Xposition Yposition Zposition Zrotation Yrotation Xrotation
												JOINT LeftHandThumb4
												{
													OFFSET 0.000000 0.000000 3.100006
													CHANNELS 6 Xposition Yposition Zposition Zrotation Yrotation Xrotation
													End Site
													{
														OFFSET 0.000000 0.000000 0.100006
													}
												}
											}
										}
									}
									JOINT LeftHandIndex1
									{
										OFFSET 0.086754 -2.345280 10.030899
										CHANNELS 6 Xposition Yposition Zposition Zrotation Yrotation Xrotation
										JOINT LeftHandIndex2
										{
											OFFSET 0.000000 0.000000 4.061096
											CHANNELS 6 Xposition Yposition Zposition Zrotation Yrotation Xrotation
											JOINT LeftHandIndex3
											{
												OFFSET 0.000000 0.000000 3.248871
												CHANNELS 6 Xposition Yposition Zposition Zrotation Yrotation Xrotation
												JOINT LeftHandIndex4
												{
													OFFSET 0.000000 0.000000 2.639709
													CHANNELS 6 Xposition Yposition Zposition Zrotation Yrotation Xrotation
													End Site
													{
														OFFSET 0.000000 0.000000 0.100006
													}
												}
											}
										}
									}
									JOINT LeftHandMiddle1
									{
										OFFSET -0.104103 -0.006767 9.502945
										CHANNELS 6 Xposition Yposition Zposition Zrotation Yrotation Xrotation
										JOINT LeftHandMiddle2
										{
											OFFSET 0.000000 0.000000 4.568726
											CHANNELS 6 Xposition Yposition Zposition Zrotation Yrotation Xrotation
											JOINT LeftHandMiddle3
											{
												OFFSET 0.000000 0.000000 3.654984
												CHANNELS 6 Xposition Yposition Zposition Zrotation Yrotation Xrotation
												JOINT LeftHandMiddle4
												{
													OFFSET 0.000000 0.000000 2.741241
													CHANNELS 6 Xposition Yposition Zposition Zrotation Yrotation Xrotation
													End Site
													{
														OFFSET 0.000000 0.000000 0.100006
													}
												}
											}
										}
									}
									JOINT LeftHandRing1
									{
										OFFSET -0.086754 2.267441 8.921707
										CHANNELS 6 Xposition Yposition Zposition Zrotation Yrotation Xrotation
										JOINT LeftHandRing2
										{
											OFFSET 0.000000 0.000000 4.061096
											CHANNELS 6 Xposition Yposition Zposition Zrotation Yrotation Xrotation
											JOINT LeftHandRing3
											{
												OFFSET 0.000000 0.000000 3.654984
												CHANNELS 6 Xposition Yposition Zposition Zrotation Yrotation Xrotation
												JOINT LeftHandRing4
												{
													OFFSET 0.000000 0.000000 2.741241
													CHANNELS 6 Xposition Yposition Zposition Zrotation Yrotation Xrotation
													End Site
													{
														OFFSET 0.000000 0.000000 0.100006
													}
												}
											}
										}
									}
									JOINT LeftHandPinky1
									{
										OFFSET 0.173504 4.467197 7.976990
										CHANNELS 6 Xposition Yposition Zposition Zrotation Yrotation Xrotation
										JOINT LeftHandPinky2
										{
											OFFSET 0.000000 0.000000 3.350403
											CHANNELS 6 Xposition Yposition Zposition Zrotation Yrotation Xrotation
											JOINT LeftHandPinky3
											{
												OFFSET 0.000000 0.000000 2.842758
												CHANNELS 6 Xposition Yposition Zposition Zrotation Yrotation Xrotation
												JOINT LeftHandPinky4
												{
													OFFSET 0.000000 0.000000 2.639709
													CHANNELS 6 Xposition Yposition Zposition Zrotation Yrotation Xrotation
													End Site
													{
														OFFSET 0.000000 0.000000 0.100006
													}
												}
											}
										}
									}
									JOINT LeftForeArmEnd
									{
										OFFSET 0.000000 0.000000 0.000000
										CHANNELS 6 Xposition Yposition Zposition Zrotation Yrotation Xrotation
										End Site
										{
											OFFSET 0.000000 0.000000 0.100006
										}
									}
								}
								JOINT LeftArmEnd
								{
									OFFSET 0.000000 0.000000 0.000000
									CHANNELS 6 Xposition Yposition Zposition Zrotation Yrotation Xrotation
									End Site
									{
										OFFSET 0.000000 0.000000 0.100006
									}
								}
							}
						}
					}
				}
			}
		}
	}
	JOINT RightUpLeg
	{
		OFFSET -11.289944 0.000000 0.000000
		CHANNELS 6 Xposition Yposition Zposition Zrotation Yrotation Xrotation
		JOINT RightLeg
		{
			OFFSET 0.000000 -0.000004 -38.200329
			CHANNELS 6 Xposition Yposition Zposition Zrotation Yrotation Xrotation
			JOINT RightFoot
			{
				OFFSET 0.000000 -0.000004 -39.900856
				CHANNELS 6 Xposition Yposition Zposition Zrotation Yrotation Xrotation
				JOINT RightToeBase
				{
					OFFSET 0.000000 -15.261639 0.000001
					CHANNELS 6 Xposition Yposition Zposition Zrotation Yrotation Xrotation
					JOINT RightToeBaseEnd
					{
						OFFSET 0.000000 -7.370712 0.000001
						CHANNELS 6 Xposition Yposition Zposition Zrotation Yrotation Xrotation
						End Site
						{
							OFFSET 0.000000 0.000000 0.100000
						}
					}
				}
				JOINT RightLegEnd
				{
					OFFSET 0.000000 0.000000 0.000000
					CHANNELS 6 Xposition Yposition Zposition Zrotation Yrotation Xrotation
					End Site
					{
						OFFSET 0.000000 0.000000 0.100000
					}
				}
			}
			JOINT RightUpLegEnd
			{
				OFFSET 0.000000 0.000000 0.000000
				CHANNELS 6 Xposition Yposition Zposition Zrotation Yrotation Xrotation
				End Site
				{
					OFFSET 0.000000 0.000000 0.099998
				}
			}
		}
	}
	JOINT LeftUpLeg
	{
		OFFSET 11.315662 0.000000 0.000000
		CHANNELS 6 Xposition Yposition Zposition Zrotation Yrotation Xrotation
		JOINT LeftLeg
		{
			OFFSET 0.000000 -0.000004 -38.200329
			CHANNELS 6 Xposition Yposition Zposition Zrotation Yrotation Xrotation
			JOINT LeftFoot
			{
				OFFSET 0.000000 -0.000004 -39.900856
				CHANNELS 6 Xposition Yposition Zposition Zrotation Yrotation Xrotation
				JOINT LeftToeBase
				{
					OFFSET 0.000000 -15.261639 0.000001
					CHANNELS 6 Xposition Yposition Zposition Zrotation Yrotation Xrotation
					JOINT LeftToeBaseEnd
					{
						OFFSET 0.000000 -7.539993 0.000001
						CHANNELS 6 Xposition Yposition Zposition Zrotation Yrotation Xrotation
						End Site
						{
							OFFSET 0.000000 0.000000 0.100000
						}
					}
				}
				JOINT LeftLegEnd
				{
					OFFSET 0.000000 0.000000 0.000000
					CHANNELS 6 Xposition Yposition Zposition Zrotation Yrotation Xrotation
					End Site
					{
						OFFSET 0.000000 0.000000 0.100000
					}
				}
			}
			JOINT LeftUpLegEnd
			{
				OFFSET 0.000000 0.000000 0.000000
				CHANNELS 6 Xposition Yposition Zposition Zrotation Yrotation Xrotation
				End Site
				{
					OFFSET 0.000000 0.000000 0.099998
				}
			}
		}
	}
}
MOTION
Frames: 2
Frame Time: 0.016667
-28.773647 -23.258457 81.991371 51.423419 7.491871 -5.512231 0.000007 2.080110 8.814237 -0.006639 -3.422792 12.554665 -0.000005 0.000001 8.844133 -0.263694 -1.847849 17.788307 -0.000003 -0.000003 11.682261 4.183953 0.612368 10.909423 -0.000002 0.000003 11.746695 2.176727 0.465250 0.318204 0.000005 -0.000006 17.658262 12.724286 2.177517 0.153122 -0.000003 -0.000000 5.101539 8.370139 3.696975 -13.130176 -0.000005 -0.000012 5.101554 3.665110 -0.266780 -15.610855 0.000001 -0.000006 11.655074 0.000001 -0.000001 -0.000000 -2.625411 -0.000009 11.175199 11.914188 -86.158807 -0.309375 -0.000003 0.000005 10.434713 -53.923121 -62.424432 48.989658 -0.000002 -0.000011 29.628429 19.321804 -0.904622 86.655744 0.000027 -0.000004 22.857599 -27.580265 41.931494 1.138688 -2.867323 -2.944286 3.959547 31.770741 -16.230952 53.110004 -0.000010 -0.000009 3.350382 -10.394987 7.419821 -19.035440 -0.000009 -0.000001 3.756509 -6.951723 5.526346 -13.058319 0.000013 0.000017 3.147321 0.000002 -0.000002 0.000001 -0.086732 -2.345276 10.030886 -10.073853 -7.743697 6.536715 -0.000005 0.000004 4.061092 0.453097 -6.069956 0.858624 0.000020 0.000004 3.248857 -0.047944 -6.070213 0.858657 0.000000 -0.000000 2.639693 0.000000 -0.000001 0.000000 0.104099 -0.006769 9.502952 -5.023106 -8.254680 2.088139 0.000001 0.000001 4.568715 0.481822 -5.939490 0.311923 0.000001 0.000000 3.654995 -0.016341 -5.939491 0.313925 0.000006 -0.000004 2.741251 -0.000001 -0.000002 0.000004 0.086771 2.267437 8.921685 3.209945 -7.079123 -4.499109 -0.000003 0.000002 4.061086 -0.983717 -5.257590 -0.316214 -0.000009 0.000003 3.654968 0.016486 -5.257578 -0.317753 0.000010 0.000006 2.741225 0.000000 -0.000001 0.000001 -0.173490 4.467199 7.976996 11.875670 -3.020486 -10.787533 0.000014 -0.000002 3.350402 -1.976171 -3.738910 -0.727841 0.000007 0.000003 2.842756 0.021711 -3.738937 -0.727680 -0.000009 -0.000001 2.639721 0.000001 -0.000001 0.000004 0.000015 0.000008 -0.000012 0.000000 0.000002 -0.000001 0.000008 0.000002 0.000001 -0.000000 -0.000000 -0.000002 2.625384 0.000002 11.175218 -8.816208 87.558674 -0.737221 0.000015 0.000003 10.813627 63.708002 50.701809 54.275986 -0.000002 0.000003 28.724785 -17.182864 2.425282 88.337589 0.644384 0.328886 25.716188 31.019611 -36.581878 5.419676 2.867321 -2.944300 3.959576 -32.088919 14.721979 55.537334 -0.000005 0.000005 3.350435 7.118244 -5.629094 -13.353064 0.000004 0.000007 3.756514 4.801582 -4.087722 -9.191237 -0.000000 -0.000011 3.100007 0.000001 0.000001 -0.000000 0.086764 -2.345281 10.030904 -8.309876 1.390058 2.192774 0.000005 0.000002 4.061096 0.499418 0.739617 -0.103936 -0.000001 -0.000001 3.248883 -0.003233 0.739620 -0.103997 -0.000000 0.000002 2.639712 0.000001 -0.000000 -0.000003 -0.104092 -0.006765 9.502963 -3.283162 1.241698 0.097553 0.000008 0.000000 4.568731 0.498057 0.877579 -0.045921 0.000005 -0.000005 3.654992 -0.001854 0.875187 -0.045925 0.000010 0.000002 2.741225 -0.000001 -0.000002 -0.000001 -0.086742 2.267447 8.921718 4.705462 1.310807 -1.732232 0.000001 0.000004 4.061104 -1.000812 0.831990 0.050801 -0.000000 -0.000001 3.655005 0.000414 0.830537 0.050514 -0.000001 -0.000001 2.741244 0.000001 0.000003 -0.000000 0.173510 4.467201 7.977015 13.055443 1.183584 -3.220748 -0.000006 -0.000003 3.350415 -2.006090 0.302876 0.058236 -0.000001 0.000007 2.842757 -0.000131 0.298840 0.058442 0.000004 0.000003 2.639728 0.000001 0.000003 -0.000000 0.000011 0.000007 0.000029 -0.000002 -0.000003 -0.000001 0.000002 -0.000002 0.000015 0.000001 -0.000001 -0.000001 -11.289942 0.000000 -0.000017 -9.059992 12.660288 -10.321085 -0.000002 0.000007 -38.200333 -0.114905 0.090385 38.185573 0.000005 0.000005 -39.900852 -20.663499 -4.828838 26.604642 -0.000002 -15.261630 -0.000004 -0.024189 -1.580168 -29.811471 0.000002 -7.370706 0.000004 0.000001 0.000000 -0.000000 0.000004 0.000004 -0.000001 -0.000000 -0.000001 0.000003 -0.000001 0.000014 -0.000002 -0.000001 -0.000001 0.000000 11.315660 0.000011 -0.000003 -0.251048 -9.836003 -15.692004 -0.000002 0.000003 -38.200321 0.586841 -0.737438 51.508051 -0.000005 0.000001 -39.900852 8.763800 1.210557 -1.762512 -0.000002 -15.261644 0.000008 -0.145406 0.242718 -25.653415 -0.000000 -7.539994 0.000001 0.000002 -0.000000 0.000000 -0.000001 0.000001 -0.000000 -0.000002 0.000000 0.000000 -0.000007 0.000006 0.000005 0.000002 0.000002 -0.000000 
-29.100046 -23.868959 81.854744 51.292719 7.613921 -5.729059 0.000004 2.080115 8.814240 0.000497 -3.550710 12.527029 0.000007 0.000005 8.844131 -0.291139 -1.860146 17.875578 0.000004 -0.000006 11.682261 4.124461 0.547790 10.954485 0.000003 0.000002 11.746675 2.149646 0.567652 0.264054 -0.000000 -0.000008 17.658255 12.332639 2.126162 0.216218 0.000000 -0.000005 5.101539 7.897259 3.665670 -13.091879 -0.000002 -0.000009 5.101548 3.669895 -0.384890 -15.510362 -0.000002 -0.000005 11.655060 0.000001 0.000000 -0.000000 -2.625379 -0.000002 11.175224 11.913623 -86.216255 -0.313812 -0.000004 -0.000003 10.434704 -53.909136 -62.460168 48.959257 -0.000006 -0.000022 29.628422 19.377641 -0.905143 86.632282 0.000027 0.000017 22.857607 -27.330208 41.863237 1.557528 -2.867327 -2.944290 3.959560 31.770734 -16.230952 53.109939 -0.000000 -0.000021 3.350384 -10.394994 7.419830 -19.035435 -0.000004 0.000001 3.756499 -6.951710 5.526342 -13.058278 -0.000005 -0.000009 3.147347 -0.000001 -0.000003 0.000004 -0.086740 -2.345278 10.030918 -10.094493 -7.865021 6.247855 -0.000012 0.000012 4.061080 0.451330 -6.124713 0.864350 0.000009 -0.000000 3.248856 -0.049787 -6.124715 0.864494 0.000001 0.000006 2.639696 -0.000001 0.000001 -0.000001 0.104100 -0.006772 9.502974 -5.027524 -8.297469 1.884720 -0.000008 -0.000005 4.568712 0.481125 -5.961003 0.313813 0.000001 0.000002 3.654973 -0.017756 -5.960980 0.315843 0.000016 0.000001 2.741223 -0.000000 -0.000001 0.000003 0.086766 2.267440 8.921690 3.222979 -6.995461 -4.555424 -0.000001 0.000013 4.061108 -0.982770 -5.201387 -0.319248 0.000021 0.000000 3.654994 0.017568 -5.201446 -0.319347 0.000023 0.000005 2.741237 0.000002 -0.000000 0.000004 -0.173492 4.467199 7.977012 11.913238 -2.841340 -10.657068 -0.000005 -0.000007 3.350413 -1.974320 -3.596858 -0.700334 0.000000 0.000004 2.842756 0.023368 -3.596845 -0.700191 -0.000001 -0.000001 2.639721 -0.000001 -0.000003 0.000001 0.000009 0.000002 0.000001 -0.000001 -0.000001 -0.000002 0.000004 -0.000002 0.000001 -0.000000 0.000000 -0.000001 2.625396 -0.000007 11.175214 -8.860058 87.600147 -0.738047 -0.000001 0.000000 10.813629 63.581780 50.645620 54.174649 -0.000003 0.000007 28.724771 -17.183472 2.428049 88.399949 0.644388 0.328875 25.716188 31.035604 -36.608001 5.292913 2.867306 -2.944319 3.959569 -32.088905 14.721998 55.537231 0.000002 0.000008 3.350440 7.118220 -5.629090 -13.352998 0.000002 0.000004 3.756517 4.801594 -4.087735 -9.191234 0.000002 0.000004 3.100007 0.000001 0.000002 0.000000 0.086746 -2.345288 10.030913 -8.255654 1.701075 2.145993 0.000000 -0.000002 4.061112 0.498285 0.961011 -0.135078 -0.000009 0.000001 3.248888 -0.004508 0.961016 -0.135141 -0.000000 0.000005 2.639709 -0.000001 -0.000000 -0.000000 -0.104109 -0.006775 9.502944 -3.237299 1.507011 0.130598 0.000003 -0.000001 4.568727 0.497228 1.062083 -0.055718 0.000002 0.000003 3.655006 -0.002484 1.062071 -0.055703 -0.000015 -0.000004 2.741226 0.000001 -0.000000 0.000000 -0.086754 2.267436 8.921730 4.733945 1.456686 -1.567719 0.000012 0.000004 4.061098 -0.999677 0.943043 0.057692 0.000002 -0.000013 3.654987 0.001366 0.943038 0.057703 -0.000003 -0.000010 2.741239 0.000002 -0.000003 -0.000000 0.173495 4.467192 7.977014 13.066655 1.168264 -2.950920 0.000001 -0.000004 3.350411 -2.003855 0.331337 0.064382 0.000007 0.000002 2.842772 0.000649 0.331335 0.064411 -0.000004 0.000001 2.639709 0.000001 -0.000002 -0.000002 -0.000005 -0.000006 0.000026 0.000000 -0.000003 0.000003 -0.000000 -0.000011 0.000031 0.000002 -0.000001 -0.000002 -11.289946 0.000002 -0.000010 -8.419830 13.059092 -10.218555 -0.000008 -0.000005 -38.200317 -0.163741 0.125879 37.550403 0.000005 -0.000000 -39.900856 -20.598992 -4.825259 27.349232 -0.000006 -15.261642 -0.000001 0.053246 -1.671400 -29.581925 -0.000003 -7.370704 0.000002 -0.000001 0.000000 0.000001 0.000000 -0.000004 0.000002 0.000000 0.000001 -0.000002 -0.000001 0.000004 -0.000000 -0.000001 -0.000002 -0.000001 11.315660 0.000010 -0.000014 -0.277944 -10.523760 -15.617187 -0.000007 0.000002 -38.200325 0.593082 -0.759354 52.007772 -0.000001 0.000001 -39.900860 8.529716 1.791222 -1.897527 -0.000000 -15.261650 0.000005 -0.166841 0.248659 -25.696819 0.000001 -7.539995 0.000001 0.000002 0.000000 -0.000000 -0.000002 -0.000002 0.000001 -0.000002 -0.000001 0.000001 0.000003 0.000010 -0.000004 -0.000001 0.000000 -0.000000 
